<svg width="24" height="24" viewBox="0 0 24 24" fill="none" xmlns="http://www.w3.org/2000/svg">
<path d="M19.7104 18.2899L15.6004 14.1899C16.6609 12.7728 17.1453 11.0066 16.9559 9.24673C16.7666 7.48689 15.9176 5.86412 14.5798 4.70509C13.2421 3.54607 11.5149 2.93685 9.74605 3.00008C7.97718 3.0633 6.29793 3.79428 5.04635 5.04586C3.79477 6.29744 3.06379 7.97669 3.00057 9.74556C2.93734 11.5144 3.54656 13.2416 4.70558 14.5793C5.86461 15.9171 7.48738 16.7661 9.24722 16.9554C11.0071 17.1448 12.7733 16.6604 14.1904 15.5999L18.2904 19.7099C18.3833 19.8036 18.4939 19.878 18.6158 19.9288C18.7377 19.9796 18.8684 20.0057 19.0004 20.0057C19.1324 20.0057 19.2631 19.9796 19.385 19.9288C19.5068 19.878 19.6174 19.8036 19.7104 19.7099C19.8041 19.6169 19.8785 19.5063 19.9293 19.3845C19.98 19.2626 20.0062 19.1319 20.0062 18.9999C20.0062 18.8679 19.98 18.7372 19.9293 18.6153C19.8785 18.4935 19.8041 18.3829 19.7104 18.2899V18.2899ZM5.00038 9.99989C5.00038 9.01099 5.29363 8.04429 5.84303 7.22204C6.39244 6.3998 7.17333 5.75893 8.08696 5.38049C9.00059 5.00206 10.0059 4.90304 10.9758 5.09597C11.9457 5.28889 12.8367 5.7651 13.5359 6.46436C14.2352 7.16362 14.7114 8.05454 14.9043 9.02444C15.0972 9.99435 14.9982 10.9997 14.6198 11.9133C14.2413 12.8269 13.6005 13.6078 12.7782 14.1572C11.956 14.7066 10.9893 14.9999 10.0004 14.9999C8.6743 14.9999 7.40253 14.4731 6.46485 13.5354C5.52716 12.5977 5.00038 11.326 5.00038 9.99989Z" fill="#008548"/>
</svg>
